# xmcd
#
# Track frame offsets: 
#        150
#        11253
#        26802
#        38509
#        56810
#        70529
#        83044
#        92131
#        107806
#        120153
#        131528
#        143955
#
# Disc length: 2090 seconds
#
# Revision: 0
# Processed by: cddbd v1.5.2PL0 Copyright (c) Steve Scherf et al.
# Submitted via: ExactAudioCopy v0.95b4
#
DISCID=9208280c
DTITLE=Bobby Atkins - The Best of Bobby Atkins and the Countrymen
DYEAR=2012
DGENRE=Bluegrass
TTITLE0=01 Feelings of a Countryman
TTITLE1=02 There's Not Enough Words
TTITLE2=03 Trading the Blues
TTITLE3=04 Blue Eyes Crying in the Rain
TTITLE4=05 More Pretty Girls Than One
TTITLE5=06 Birdland Breakdown
TTITLE6=07 Living One Again
TTITLE7=08 Don't Be Angry
TTITLE8=09 Poor Man Blues
TTITLE9=10 My Love Goes Out To Mary
TTITLE10=11 Makes No Difference Now
TTITLE11=12 Love Valley
EXTD=
EXTT0=
EXTT1=
EXTT2=
EXTT3=
EXTT4=
EXTT5=
EXTT6=
EXTT7=
EXTT8=
EXTT9=
EXTT10=
EXTT11=
PLAYORDER=
